<?xml version="1.0" encoding="utf-8"?>
<!-- Generator: Adobe Illustrator 19.0.0, SVG Export Plug-In . SVG Version: 6.00 Build 0)  -->
<svg version="1.1" id="Layer_1" xmlns="http://www.w3.org/2000/svg" xmlns:xlink="http://www.w3.org/1999/xlink" x="0px" y="0px"
	 viewBox="0 0 256 256" style="enable-background:new 0 0 256 256;" xml:space="preserve">
<style type="text/css">
	.st0{fill:#333333;}
	.st1{fill:none;stroke:#FFFFFF;stroke-width:4;stroke-miterlimit:10;}
	.st2{fill:none;stroke:#939393;stroke-miterlimit:10;}
	.st3{fill:#FFFFFF;}
	.st4{fill:#D1D1D1;}
</style>
<rect id="XMLID_1_" class="st0" width="256" height="256"/>
<rect id="XMLID_3_" x="21.3" y="16" class="st1" width="213.3" height="224"/>
<g id="XMLID_4_">
	<line id="XMLID_7_" class="st2" x1="30" y1="63.5" x2="52" y2="63.5"/>
	<line id="XMLID_34_" class="st2" x1="159" y1="61.5" x2="225" y2="61.5"/>
	<line id="XMLID_8_" class="st2" x1="30" y1="151.5" x2="225" y2="151.5"/>
	<line id="XMLID_38_" class="st2" x1="63" y1="177.5" x2="225" y2="177.5"/>
	<line id="XMLID_37_" class="st2" x1="63" y1="155.5" x2="225" y2="155.5"/>
	<line id="XMLID_39_" class="st2" x1="63" y1="166.5" x2="225" y2="166.5"/>
	<line id="XMLID_9_" class="st2" x1="30.5" y1="48" x2="30.5" y2="152"/>
	<line id="XMLID_10_" class="st2" x1="41.5" y1="48" x2="41.5" y2="152"/>
	<line id="XMLID_11_" class="st2" x1="52.5" y1="63" x2="52.5" y2="152"/>
	<line id="XMLID_20_" class="st2" x1="62.5" y1="92" x2="62.5" y2="152"/>
	<line id="XMLID_40_" class="st2" x1="63.5" y1="155" x2="63.5" y2="178"/>
	<line id="XMLID_42_" class="st2" x1="74.5" y1="156" x2="74.5" y2="178"/>
	<line id="XMLID_43_" class="st2" x1="84.5" y1="156" x2="84.5" y2="178"/>
	<line id="XMLID_44_" class="st2" x1="95.5" y1="156" x2="95.5" y2="178"/>
	<line id="XMLID_45_" class="st2" x1="106.5" y1="156" x2="106.5" y2="178"/>
	<line id="XMLID_46_" class="st2" x1="117.5" y1="156" x2="117.5" y2="178"/>
	<line id="XMLID_47_" class="st2" x1="127.5" y1="156" x2="127.5" y2="178"/>
	<line id="XMLID_48_" class="st2" x1="138.5" y1="156" x2="138.5" y2="178"/>
	<line id="XMLID_49_" class="st2" x1="149.5" y1="156" x2="149.5" y2="178"/>
	<line id="XMLID_50_" class="st2" x1="160.5" y1="156" x2="160.5" y2="178"/>
	<line id="XMLID_51_" class="st2" x1="170.5" y1="156" x2="170.5" y2="178"/>
	<line id="XMLID_52_" class="st2" x1="181.5" y1="156" x2="181.5" y2="178"/>
	<line id="XMLID_53_" class="st2" x1="192.5" y1="156" x2="192.5" y2="178"/>
	<line id="XMLID_54_" class="st2" x1="203.5" y1="156" x2="203.5" y2="178"/>
	<line id="XMLID_55_" class="st2" x1="213.5" y1="156" x2="213.5" y2="178"/>
	<line id="XMLID_41_" class="st2" x1="224.5" y1="155" x2="224.5" y2="178"/>
	<line id="XMLID_21_" class="st2" x1="73.5" y1="93" x2="73.5" y2="152"/>
	<line id="XMLID_22_" class="st2" x1="84.5" y1="93" x2="84.5" y2="152"/>
	<line id="XMLID_23_" class="st2" x1="95.5" y1="91" x2="95.5" y2="152"/>
	<line id="XMLID_24_" class="st2" x1="105.5" y1="91" x2="105.5" y2="152"/>
	<line id="XMLID_25_" class="st2" x1="116.5" y1="93" x2="116.5" y2="152"/>
	<line id="XMLID_26_" class="st2" x1="127.5" y1="93" x2="127.5" y2="152"/>
	<line id="XMLID_27_" class="st2" x1="138.5" y1="91" x2="138.5" y2="152"/>
	<line id="XMLID_28_" class="st2" x1="149.5" y1="92" x2="149.5" y2="152"/>
	<line id="XMLID_29_" class="st2" x1="159.5" y1="62" x2="159.5" y2="152"/>
	<line id="XMLID_30_" class="st2" x1="170.5" y1="62" x2="170.5" y2="152"/>
	<line id="XMLID_31_" class="st2" x1="181.5" y1="62" x2="181.5" y2="152"/>
	<line id="XMLID_32_" class="st2" x1="192.5" y1="62" x2="192.5" y2="152"/>
	<line id="XMLID_33_" class="st2" x1="202.5" y1="62" x2="202.5" y2="152"/>
	<line id="XMLID_12_" class="st2" x1="224.5" y1="48" x2="224.5" y2="152"/>
	<line id="XMLID_13_" class="st2" x1="213.5" y1="48" x2="213.5" y2="152"/>
	<line id="XMLID_14_" class="st2" x1="30" y1="48.5" x2="42" y2="48.5"/>
	<line id="XMLID_35_" class="st2" x1="214" y1="48.5" x2="224" y2="48.5"/>
	<line id="XMLID_16_" class="st2" x1="30" y1="77.5" x2="52" y2="77.5"/>
	<line id="XMLID_36_" class="st2" x1="160" y1="76.5" x2="225" y2="76.5"/>
	<line id="XMLID_17_" class="st2" x1="30" y1="92.5" x2="224" y2="92.5"/>
	<line id="XMLID_18_" class="st2" x1="30" y1="107.5" x2="224" y2="107.5"/>
	<line id="XMLID_19_" class="st2" x1="30" y1="122.5" x2="225" y2="122.5"/>
	<line id="XMLID_56_" class="st2" x1="30" y1="136.5" x2="224" y2="136.5"/>
</g>
<g id="XMLID_2_">
	<g id="XMLID_15_">
		<path id="XMLID_63_" class="st3" d="M143.3,106.1c-4.4-2.8-11.1-4.1-20.1-4.1H84v3.5c1,0.1,2.4,0.3,3.9,0.6c1.5,0.3,3,0.7,3.9,1
			c1.3,0.6,1.7,1.2,2.1,2.1s0.1,1.8,0.1,3v48.9c0,1.3,0.4,2.4,0,3.1c-0.4,0.7-0.9,1.4-2.2,1.9c-0.6,0.3-2.1,0.5-3.6,0.7
			c-1.6,0.2-3.1,0.3-4.1,0.4v3.8h38v-3.8c-1-0.1-2-0.3-3.4-0.6s-2.4-0.6-3-0.8c-1.2-0.5-2.3-1.2-2.7-2.1c-0.4-0.9-0.8-1.9-0.8-3.1
			V142h6.2c4.7,0,8.9-0.8,12.7-1.6c3.8-0.8,7.1-2.3,10-4.2c2.8-1.8,5.1-4.1,6.7-7c1.6-2.8,2.4-6.2,2.4-10.1
			C150,113.3,147.8,109,143.3,106.1z M126.8,133.1c-2.8,2.5-6.8,3.9-12.2,3.9H112v-30h4.6c5.4,0,9.1,0.8,11.2,3.4
			c2.1,2.5,3.1,6.3,3.1,11.5C130.9,127,129.5,130.7,126.8,133.1z"/>
		<path id="XMLID_64_" class="st3" d="M187.2,165.1c-1.6,0.1-2.6,0.2-3.4,0.2c-2.7,0-4.9-0.8-5.9-2.4s-1.8-4.3-1.8-8.1V128h13v-5
			h-13v-15h-16v15h-9v5h9v30c0,4.6,1.5,8.1,4,10.6c2.5,2.5,6.4,3.7,11.4,3.7c3.4,0,5.9-0.4,8.3-1.1c2.4-0.7,4.3-1.6,6.3-2.5v-4.1
			C189,164.8,188.8,165,187.2,165.1z"/>
	</g>
	<path id="XMLID_6_" class="st3" d="M80.6,107c-0.3,0-0.3-0.1-0.4-0.2c-0.2-0.1-0.7-0.2-0.7-0.4s-0.5-0.3-0.5-0.5v-9
		c0-0.2,0.4-0.4,0.5-0.5s0.4-0.3,0.6-0.4c0.1,0,0.1-0.1,0.4-0.1S80,95.8,81,95.8V96h-3.5c0,0,0-0.1-0.1,0.2
		c-0.1,0.3-0.2,0.4-0.3,0.7l-3,8.1L70.4,96H65v-0.2c0,0,1.1,0.1,1.4,0.1s0.8,0.2,1,0.4c0.2,0.1-0.1,0.3,0,0.6S67,97.4,67,97.8v6.4
		c0,0.8,0.5,1.4,0.4,1.7s0.1,0.6-0.1,0.8c-0.2,0.1-0.8,0.2-1.1,0.3S65,107,65,107v1h5v-1c0,0,0.2-0.1-0.2-0.2s-0.4-0.2-0.5-0.4
		c-0.2-0.2-0.7-0.4-0.8-0.8s-0.5-0.9-0.5-1.6V97h1.1l4.1,11h0.4l4.3-11H77v8.9c0,0.2,0.4,0.4,0.4,0.5s0,0.3-0.2,0.4
		c-0.1,0.1-0.7,0.1-1,0.1S75,107,75,107v1h6v-1C80,107,80.9,107,80.6,107z"/>
	<path id="XMLID_67_" class="st3" d="M80,173.3c-0.2-0.1-0.1-0.1-0.2-0.2c-0.2-0.1-0.2-0.3-0.3-0.4s-0.1,0-0.2-0.2L75.2,162h-0.7
		c-0.6,1-1.3,2.9-2,4.9s-1.4,3.5-2.1,5.1c-0.1,0.3-0.2,0.5-0.4,0.6c-0.1,0.2-0.3,0.3-0.5,0.5c-0.1,0.1-1,0.1-1.2,0.2
		c-0.2,0.1-1.2,0.1-1.2,0.1v0.6h5v-0.6c0,0-0.4-0.1-0.7-0.2s-0.3-0.3-0.3-0.5c0-0.1,0.1-0.2,0.2-0.4s0.1-0.4,0.2-0.6
		c0.1-0.3,0.2-0.4,0.3-0.7c0.1-0.3,0.3-0.9,0.4-0.9h4.4l1,2.6c0,0.1,0,0,0.1,0.1s0,0.1,0,0.2c0,0.1-0.6,0.2-0.9,0.3
		s-1.6,0.1-1.6,0.2v0.6h5L80,173.3C80,173.4,80.2,173.3,80,173.3z M72.4,169l1.9-4.8l1.9,4.8H72.4z"/>
</g>
<g id="XMLID_5_">
	<path id="XMLID_58_" class="st4" d="M52.6,197v-8.6h3.2c0.6,0,1,0,1.3,0.1c0.4,0.1,0.8,0.2,1.1,0.4s0.5,0.5,0.7,0.8
		s0.3,0.7,0.3,1.2c0,0.7-0.2,1.3-0.7,1.9s-1.3,0.8-2.5,0.8h-2.2v3.5H52.6z M53.7,192.5h2.2c0.7,0,1.3-0.1,1.6-0.4s0.5-0.7,0.5-1.2
		c0-0.4-0.1-0.7-0.3-0.9s-0.4-0.4-0.7-0.5c-0.2-0.1-0.5-0.1-1.1-0.1h-2.2V192.5z"/>
	<path id="XMLID_68_" class="st4" d="M66.5,195l1.1,0.1c-0.2,0.6-0.5,1.1-1,1.5s-1.1,0.5-1.8,0.5c-0.9,0-1.6-0.3-2.2-0.8
		s-0.8-1.3-0.8-2.4c0-1,0.3-1.9,0.8-2.4s1.2-0.9,2.1-0.9c0.8,0,1.5,0.3,2,0.8s0.8,1.4,0.8,2.4c0,0.1,0,0.2,0,0.3H63
		c0,0.7,0.2,1.2,0.6,1.6s0.8,0.5,1.3,0.5c0.4,0,0.7-0.1,1-0.3S66.4,195.4,66.5,195z M63.1,193.3h3.5c0-0.5-0.2-0.9-0.4-1.2
		c-0.3-0.4-0.8-0.6-1.3-0.6c-0.5,0-0.9,0.2-1.2,0.5S63.1,192.7,63.1,193.3z"/>
	<path id="XMLID_71_" class="st4" d="M70.7,197v-6.2h0.9v0.9c0.2-0.4,0.5-0.7,0.7-0.9s0.4-0.2,0.7-0.2c0.4,0,0.7,0.1,1.1,0.3l-0.4,1
		c-0.3-0.2-0.5-0.2-0.8-0.2c-0.2,0-0.4,0.1-0.6,0.2s-0.3,0.3-0.4,0.6c-0.1,0.4-0.2,0.8-0.2,1.2v3.3H70.7z"/>
	<path id="XMLID_73_" class="st4" d="M76.5,189.6v-1.2h1.1v1.2H76.5z M76.5,197v-6.2h1.1v6.2H76.5z"/>
	<path id="XMLID_76_" class="st4" d="M80.6,193.9c0-1.2,0.3-2,1-2.6c0.5-0.5,1.2-0.7,2-0.7c0.9,0,1.6,0.3,2.1,0.8s0.8,1.3,0.8,2.3
		c0,0.8-0.1,1.4-0.4,1.9s-0.6,0.8-1,1.1s-1,0.4-1.5,0.4c-0.9,0-1.6-0.3-2.1-0.8S80.6,194.9,80.6,193.9z M81.7,193.9
		c0,0.8,0.2,1.4,0.5,1.8s0.8,0.6,1.3,0.6c0.5,0,1-0.2,1.3-0.6s0.5-1,0.5-1.8c0-0.8-0.2-1.4-0.5-1.7s-0.8-0.6-1.3-0.6
		c-0.5,0-1,0.2-1.3,0.6S81.7,193.1,81.7,193.9z"/>
	<path id="XMLID_79_" class="st4" d="M93.5,197v-0.8c-0.4,0.6-1,0.9-1.7,0.9c-0.5,0-1-0.1-1.4-0.4s-0.7-0.7-1-1.1s-0.3-1.1-0.3-1.7
		c0-0.6,0.1-1.2,0.3-1.7s0.5-0.9,0.9-1.2s0.9-0.4,1.4-0.4c0.4,0,0.7,0.1,1,0.2s0.5,0.4,0.7,0.6v-3.1h1v8.6H93.5z M90.2,193.9
		c0,0.8,0.2,1.4,0.5,1.8s0.7,0.6,1.2,0.6c0.5,0,0.9-0.2,1.2-0.6s0.5-1,0.5-1.7c0-0.9-0.2-1.5-0.5-1.9s-0.7-0.6-1.2-0.6
		c-0.5,0-0.9,0.2-1.2,0.6S90.2,193.1,90.2,193.9z"/>
	<path id="XMLID_82_" class="st4" d="M97.9,189.6v-1.2H99v1.2H97.9z M97.9,197v-6.2H99v6.2H97.9z"/>
	<path id="XMLID_85_" class="st4" d="M106.5,194.7l1,0.1c-0.1,0.7-0.4,1.3-0.9,1.7s-1,0.6-1.7,0.6c-0.9,0-1.5-0.3-2.1-0.8
		s-0.8-1.4-0.8-2.4c0-0.7,0.1-1.3,0.3-1.8s0.6-0.9,1-1.1s1-0.4,1.5-0.4c0.7,0,1.2,0.2,1.7,0.5s0.7,0.8,0.8,1.5l-1,0.2
		c-0.1-0.4-0.3-0.7-0.5-0.9s-0.5-0.3-0.9-0.3c-0.5,0-1,0.2-1.3,0.6s-0.5,1-0.5,1.8c0,0.8,0.2,1.4,0.5,1.8s0.7,0.6,1.3,0.6
		c0.4,0,0.8-0.1,1-0.4S106.4,195.2,106.5,194.7z"/>
	<path id="XMLID_87_" class="st4" d="M117.4,197v-7.6h-2.8v-1h6.8v1h-2.8v7.6H117.4z"/>
	<path id="XMLID_89_" class="st4" d="M127,196.2c-0.4,0.3-0.8,0.6-1.1,0.7s-0.7,0.2-1.2,0.2c-0.7,0-1.2-0.2-1.6-0.5
		s-0.6-0.8-0.6-1.3c0-0.3,0.1-0.6,0.2-0.8s0.3-0.5,0.5-0.6s0.5-0.3,0.8-0.3c0.2-0.1,0.5-0.1,0.9-0.2c0.9-0.1,1.5-0.2,1.9-0.4
		c0-0.1,0-0.2,0-0.3c0-0.4-0.1-0.7-0.3-0.9c-0.3-0.2-0.7-0.4-1.2-0.4c-0.5,0-0.9,0.1-1.1,0.3s-0.4,0.5-0.5,0.9l-1-0.1
		c0.1-0.4,0.2-0.8,0.5-1.1s0.5-0.5,0.9-0.6s0.9-0.2,1.4-0.2c0.5,0,1,0.1,1.3,0.2s0.6,0.3,0.7,0.5s0.3,0.4,0.3,0.7
		c0,0.2,0.1,0.5,0.1,1v1.4c0,1,0,1.6,0.1,1.9s0.1,0.5,0.3,0.7h-1.1C127.1,196.8,127,196.5,127,196.2z M126.9,193.9
		c-0.4,0.2-1,0.3-1.7,0.4c-0.4,0.1-0.7,0.1-0.9,0.2s-0.3,0.2-0.4,0.3s-0.1,0.3-0.1,0.5c0,0.3,0.1,0.5,0.3,0.7s0.5,0.3,0.9,0.3
		c0.4,0,0.8-0.1,1.1-0.3s0.5-0.4,0.7-0.7c0.1-0.2,0.2-0.6,0.2-1.1V193.9z"/>
	<path id="XMLID_92_" class="st4" d="M132.4,197h-1v-8.6h1.1v3.1c0.4-0.6,1-0.8,1.7-0.8c0.4,0,0.7,0.1,1.1,0.2s0.6,0.4,0.8,0.7
		s0.4,0.6,0.5,1s0.2,0.8,0.2,1.3c0,1.1-0.3,1.9-0.8,2.5s-1.2,0.9-1.9,0.9c-0.7,0-1.3-0.3-1.7-0.9V197z M132.4,193.8
		c0,0.7,0.1,1.3,0.3,1.6c0.3,0.5,0.8,0.8,1.3,0.8c0.5,0,0.9-0.2,1.2-0.6s0.5-1,0.5-1.8c0-0.8-0.2-1.4-0.5-1.8s-0.7-0.6-1.2-0.6
		c-0.5,0-0.9,0.2-1.2,0.6S132.4,193.1,132.4,193.8z"/>
	<path id="XMLID_95_" class="st4" d="M139.8,197v-8.6h1.1v8.6H139.8z"/>
	<path id="XMLID_97_" class="st4" d="M148.6,195l1.1,0.1c-0.2,0.6-0.5,1.1-1,1.5s-1.1,0.5-1.8,0.5c-0.9,0-1.6-0.3-2.2-0.8
		s-0.8-1.3-0.8-2.4c0-1,0.3-1.9,0.8-2.4s1.2-0.9,2.1-0.9c0.8,0,1.5,0.3,2,0.8s0.8,1.4,0.8,2.4c0,0.1,0,0.2,0,0.3h-4.6
		c0,0.7,0.2,1.2,0.6,1.6s0.8,0.5,1.3,0.5c0.4,0,0.7-0.1,1-0.3S148.4,195.4,148.6,195z M145.1,193.3h3.5c0-0.5-0.2-0.9-0.4-1.2
		c-0.3-0.4-0.8-0.6-1.3-0.6c-0.5,0-0.9,0.2-1.2,0.5S145.2,192.7,145.1,193.3z"/>
	<path id="XMLID_100_" class="st4" d="M159.6,197l-2.3-8.6h1.2l1.3,5.6c0.1,0.6,0.3,1.2,0.4,1.8c0.2-0.9,0.3-1.4,0.4-1.6l1.6-5.8
		h1.4l1.2,4.3c0.3,1.1,0.5,2.1,0.7,3c0.1-0.5,0.3-1.2,0.4-1.9l1.3-5.5h1.1L166,197h-1.1l-1.8-6.5c-0.2-0.5-0.2-0.9-0.3-1
		c-0.1,0.4-0.2,0.7-0.3,1l-1.8,6.5H159.6z"/>
	<path id="XMLID_102_" class="st4" d="M171.1,189.6v-1.2h1.1v1.2H171.1z M171.1,197v-6.2h1.1v6.2H171.1z"/>
	<path id="XMLID_105_" class="st4" d="M179.6,197v-0.8c-0.4,0.6-1,0.9-1.7,0.9c-0.5,0-1-0.1-1.4-0.4s-0.7-0.7-1-1.1
		s-0.3-1.1-0.3-1.7c0-0.6,0.1-1.2,0.3-1.7s0.5-0.9,0.9-1.2s0.9-0.4,1.4-0.4c0.4,0,0.7,0.1,1,0.2s0.5,0.4,0.7,0.6v-3.1h1v8.6H179.6z
		 M176.2,193.9c0,0.8,0.2,1.4,0.5,1.8s0.7,0.6,1.2,0.6c0.5,0,0.9-0.2,1.2-0.6s0.5-1,0.5-1.7c0-0.9-0.2-1.5-0.5-1.9s-0.7-0.6-1.2-0.6
		c-0.5,0-0.9,0.2-1.2,0.6S176.2,193.1,176.2,193.9z"/>
	<path id="XMLID_108_" class="st4" d="M183.8,197.5l1,0.2c0,0.3,0.2,0.5,0.4,0.7c0.3,0.2,0.6,0.3,1.1,0.3c0.5,0,0.9-0.1,1.1-0.3
		s0.4-0.5,0.5-0.8c0.1-0.2,0.1-0.7,0.1-1.4c-0.5,0.5-1,0.8-1.7,0.8c-0.9,0-1.5-0.3-2-0.9s-0.7-1.4-0.7-2.2c0-0.6,0.1-1.1,0.3-1.6
		s0.5-0.9,0.9-1.2s0.9-0.4,1.4-0.4c0.7,0,1.3,0.3,1.8,0.9v-0.8h1v5.4c0,1-0.1,1.7-0.3,2.1s-0.5,0.7-0.9,1s-1,0.4-1.6,0.4
		c-0.7,0-1.3-0.2-1.8-0.5S183.8,198.2,183.8,197.5z M184.7,193.8c0,0.8,0.2,1.4,0.5,1.8s0.7,0.6,1.2,0.6c0.5,0,0.9-0.2,1.2-0.6
		s0.5-1,0.5-1.8c0-0.8-0.2-1.3-0.5-1.7s-0.7-0.6-1.2-0.6c-0.5,0-0.9,0.2-1.2,0.6S184.7,193,184.7,193.8z"/>
	<path id="XMLID_111_" class="st4" d="M196.7,195l1.1,0.1c-0.2,0.6-0.5,1.1-1,1.5s-1.1,0.5-1.8,0.5c-0.9,0-1.6-0.3-2.2-0.8
		s-0.8-1.3-0.8-2.4c0-1,0.3-1.9,0.8-2.4s1.2-0.9,2.1-0.9c0.8,0,1.5,0.3,2,0.8s0.8,1.4,0.8,2.4c0,0.1,0,0.2,0,0.3h-4.6
		c0,0.7,0.2,1.2,0.6,1.6s0.8,0.5,1.3,0.5c0.4,0,0.7-0.1,1-0.3S196.6,195.4,196.7,195z M193.3,193.3h3.5c0-0.5-0.2-0.9-0.4-1.2
		c-0.3-0.4-0.8-0.6-1.3-0.6c-0.5,0-0.9,0.2-1.2,0.5S193.3,192.7,193.3,193.3z"/>
	<path id="XMLID_114_" class="st4" d="M203.3,196.1l0.2,0.9c-0.3,0.1-0.6,0.1-0.8,0.1c-0.4,0-0.7-0.1-0.9-0.2s-0.4-0.3-0.4-0.5
		s-0.1-0.6-0.1-1.2v-3.6h-0.8v-0.8h0.8v-1.5l1-0.6v2.2h1.1v0.8h-1.1v3.6c0,0.3,0,0.5,0.1,0.6s0.1,0.2,0.2,0.2s0.2,0.1,0.4,0.1
		C202.9,196.1,203.1,196.1,203.3,196.1z"/>
</g>
</svg>
